name C:\Users\u0101727\Documents\MyRepositories\upper-imu-dc\OpenSim\subject0\MA\ResultsMA\grid_4nodes_9dim\angles_3.mot
datacolumns 10
datarows 23
range 375.01000000 375.23000000
endheader 
time	clav_prot	clav_elev	scapula_abduction	scapula_elevation	scapula_upward_rot	scapula_winging	plane_elv	shoulder_elv	axial_rot	
        375.01000000	        -50.00000000	         20.00000000	         15.00000000	         -3.33333333	         60.00000000	        -20.00000000	        -30.00000000	         63.33333333	        -90.00000000	
        375.02000000	        -38.33333333	         20.00000000	         15.00000000	         -3.33333333	         60.00000000	        -20.00000000	        -30.00000000	         63.33333333	        -90.00000000	
        375.03000000	        -26.66666667	         20.00000000	         15.00000000	         -3.33333333	         60.00000000	        -20.00000000	        -30.00000000	         63.33333333	        -90.00000000	
        375.04000000	        -15.00000000	         20.00000000	         15.00000000	         -3.33333333	         60.00000000	        -20.00000000	        -30.00000000	         63.33333333	        -90.00000000	
        375.05000000	        -50.00000000	        -10.00000000	        -40.00000000	          3.33333333	         60.00000000	        -20.00000000	        -30.00000000	         63.33333333	        -90.00000000	
        375.06000000	        -38.33333333	        -10.00000000	        -40.00000000	          3.33333333	         60.00000000	        -20.00000000	        -30.00000000	         63.33333333	        -90.00000000	
        375.07000000	        -26.66666667	        -10.00000000	        -40.00000000	          3.33333333	         60.00000000	        -20.00000000	        -30.00000000	         63.33333333	        -90.00000000	
        375.08000000	        -15.00000000	        -10.00000000	        -40.00000000	          3.33333333	         60.00000000	        -20.00000000	        -30.00000000	         63.33333333	        -90.00000000	
        375.09000000	        -50.00000000	          0.00000000	        -40.00000000	          3.33333333	         60.00000000	        -20.00000000	        -30.00000000	         63.33333333	        -90.00000000	
        375.10000000	        -38.33333333	          0.00000000	        -40.00000000	          3.33333333	         60.00000000	        -20.00000000	        -30.00000000	         63.33333333	        -90.00000000	
        375.11000000	        -26.66666667	          0.00000000	        -40.00000000	          3.33333333	         60.00000000	        -20.00000000	        -30.00000000	         63.33333333	        -90.00000000	
        375.12000000	        -15.00000000	          0.00000000	        -40.00000000	          3.33333333	         60.00000000	        -20.00000000	        -30.00000000	         63.33333333	        -90.00000000	
        375.13000000	        -50.00000000	         10.00000000	        -40.00000000	          3.33333333	         60.00000000	        -20.00000000	        -30.00000000	         63.33333333	        -90.00000000	
        375.14000000	        -38.33333333	         10.00000000	        -40.00000000	          3.33333333	         60.00000000	        -20.00000000	        -30.00000000	         63.33333333	        -90.00000000	
        375.15000000	        -26.66666667	         10.00000000	        -40.00000000	          3.33333333	         60.00000000	        -20.00000000	        -30.00000000	         63.33333333	        -90.00000000	
        375.16000000	        -15.00000000	         10.00000000	        -40.00000000	          3.33333333	         60.00000000	        -20.00000000	        -30.00000000	         63.33333333	        -90.00000000	
        375.17000000	        -50.00000000	         20.00000000	        -40.00000000	          3.33333333	         60.00000000	        -20.00000000	        -30.00000000	         63.33333333	        -90.00000000	
        375.18000000	        -38.33333333	         20.00000000	        -40.00000000	          3.33333333	         60.00000000	        -20.00000000	        -30.00000000	         63.33333333	        -90.00000000	
        375.19000000	        -26.66666667	         20.00000000	        -40.00000000	          3.33333333	         60.00000000	        -20.00000000	        -30.00000000	         63.33333333	        -90.00000000	
        375.20000000	        -15.00000000	         20.00000000	        -40.00000000	          3.33333333	         60.00000000	        -20.00000000	        -30.00000000	         63.33333333	        -90.00000000	
        375.21000000	        -50.00000000	        -10.00000000	        -21.66666667	          3.33333333	         60.00000000	        -20.00000000	        -30.00000000	         63.33333333	        -90.00000000	
        375.22000000	        -38.33333333	        -10.00000000	        -21.66666667	          3.33333333	         60.00000000	        -20.00000000	        -30.00000000	         63.33333333	        -90.00000000	
        375.23000000	        -26.66666667	        -10.00000000	        -21.66666667	          3.33333333	         60.00000000	        -20.00000000	        -30.00000000	         63.33333333	        -90.00000000	
